<svg xmlns="http://www.w3.org/2000/svg" viewBox="0 0 1000 1200" role="img" aria-label="Frente conceptual Raíz de concreto"><rect width="1000" height="1200" fill="#d8d1c3"/><path d="M330 170 220 265l75 105 70-45v590c0 90 270 90 270 0V325l70 45 75-105-110-95-95-35c-40 70-110 70-150 0Z" fill="#f0eadf" stroke="#b9b0a2" stroke-width="5"/><path d="M355 900c42-110 92-175 150-230 50-47 66-118 71-202" fill="none" stroke="#171612" stroke-width="12" stroke-linecap="round"/><path d="M400 950c44-116 115-145 148-225 30-72 90-129 145-160" fill="none" stroke="#66704d" stroke-width="8" stroke-linecap="round"/><path d="M435 765c60-8 90-47 112-95M500 690c64-10 98-46 122-83" fill="none" stroke="#171612" stroke-width="6"/><text x="55" y="70" font-family="Arial" font-size="18" letter-spacing="4" fill="#312e29">01 · FRENTE / DIRECCIÓN A</text><text x="55" y="1138" font-family="Arial" font-size="15" letter-spacing="2" fill="#5b554c">ASCENSO LATERAL CONTENIDO · ESCALA POR VALIDAR</text></svg>